<svg width="2624" height="2104" xmlns="http://www.w3.org/2000/svg" xmlns:xlink="http://www.w3.org/1999/xlink" xml:space="preserve" overflow="hidden"><defs><clipPath id="clip0"><rect x="3329" y="285" width="2624" height="2104"/></clipPath><clipPath id="clip1"><rect x="3330" y="286" width="2621" height="2101"/></clipPath><clipPath id="clip2"><rect x="3330" y="286" width="2621" height="2101"/></clipPath><clipPath id="clip3"><rect x="3526" y="460" width="2313" height="1788"/></clipPath><clipPath id="clip4"><rect x="3526" y="460" width="2313" height="1788"/></clipPath><clipPath id="clip5"><rect x="3526" y="460" width="2313" height="1788"/></clipPath><clipPath id="clip6"><rect x="3526" y="460" width="2313" height="1788"/></clipPath><clipPath id="clip7"><rect x="3330" y="286" width="2621" height="2101"/></clipPath><clipPath id="clip8"><rect x="3330" y="286" width="2621" height="2101"/></clipPath><clipPath id="clip9"><rect x="3330" y="286" width="2621" height="2101"/></clipPath><clipPath id="clip10"><rect x="3330" y="286" width="2621" height="2101"/></clipPath><clipPath id="clip11"><rect x="3330" y="286" width="2621" height="2101"/></clipPath><clipPath id="clip12"><rect x="3330" y="286" width="2621" height="2101"/></clipPath><clipPath id="clip13"><rect x="3330" y="286" width="2621" height="2101"/></clipPath><clipPath id="clip14"><rect x="3330" y="286" width="2621" height="2101"/></clipPath><clipPath id="clip15"><rect x="3330" y="286" width="2621" height="2101"/></clipPath><clipPath id="clip16"><rect x="3330" y="286" width="2621" height="2101"/></clipPath><clipPath id="clip17"><rect x="3330" y="286" width="2621" height="2101"/></clipPath><clipPath id="clip18"><rect x="3330" y="286" width="2621" height="2101"/></clipPath><clipPath id="clip19"><rect x="3330" y="286" width="2621" height="2101"/></clipPath><clipPath id="clip20"><rect x="3330" y="286" width="2621" height="2101"/></clipPath><clipPath id="clip21"><rect x="3330" y="286" width="2621" height="2101"/></clipPath><clipPath id="clip22"><rect x="3330" y="286" width="2621" height="2101"/></clipPath><clipPath id="clip23"><rect x="3330" y="286" width="2621" height="2101"/></clipPath><clipPath id="clip24"><rect x="3330" y="286" width="2621" height="2101"/></clipPath><clipPath id="clip25"><rect x="3330" y="286" width="2621" height="2101"/></clipPath><clipPath id="clip26"><rect x="3330" y="286" width="2621" height="2101"/></clipPath><clipPath id="clip27"><rect x="3330" y="286" width="2621" height="2101"/></clipPath><clipPath id="clip28"><rect x="3330" y="286" width="2621" height="2101"/></clipPath><clipPath id="clip29"><rect x="3330" y="286" width="2621" height="2101"/></clipPath><clipPath id="clip30"><rect x="3330" y="286" width="2621" height="2101"/></clipPath><clipPath id="clip31"><rect x="3330" y="286" width="2621" height="2101"/></clipPath><clipPath id="clip32"><rect x="3330" y="286" width="2621" height="2101"/></clipPath><clipPath id="clip33"><rect x="3330" y="286" width="2621" height="2101"/></clipPath><clipPath id="clip34"><rect x="3330" y="286" width="2621" height="2101"/></clipPath><clipPath id="clip35"><rect x="3330" y="286" width="2621" height="2101"/></clipPath><clipPath id="clip36"><rect x="3330" y="286" width="2621" height="2101"/></clipPath><clipPath id="clip37"><rect x="3330" y="286" width="2621" height="2101"/></clipPath><clipPath id="clip38"><rect x="3330" y="286" width="2621" height="2101"/></clipPath><clipPath id="clip39"><rect x="3330" y="286" width="2621" height="2101"/></clipPath><clipPath id="clip40"><rect x="3330" y="286" width="2621" height="2101"/></clipPath><clipPath id="clip41"><rect x="3330" y="286" width="2621" height="2101"/></clipPath><clipPath id="clip42"><rect x="3330" y="286" width="2621" height="2101"/></clipPath><clipPath id="clip43"><rect x="3330" y="286" width="2621" height="2101"/></clipPath><clipPath id="clip44"><rect x="3330" y="286" width="2621" height="2101"/></clipPath><clipPath id="clip45"><rect x="3330" y="286" width="2621" height="2101"/></clipPath><clipPath id="clip46"><rect x="3330" y="286" width="2621" height="2101"/></clipPath><clipPath id="clip47"><rect x="3330" y="286" width="2621" height="2101"/></clipPath><clipPath id="clip48"><rect x="3330" y="286" width="2621" height="2101"/></clipPath><clipPath id="clip49"><rect x="3330" y="286" width="2621" height="2101"/></clipPath><clipPath id="clip50"><rect x="3330" y="286" width="2621" height="2101"/></clipPath></defs><g clip-path="url(#clip0)" transform="translate(-3329 -285)"><rect x="3330" y="286" width="2621" height="2101" fill="#FFFFFF"/><g clip-path="url(#clip1)"><path d="M3526.5 460.5 3526.5 2245.5M3911.63 460.5 3911.63 2245.5M4296.64 460.5 4296.64 2245.5M5066.67 460.5 5066.67 2245.5M5451.68 460.5 5451.68 2245.5M5836.5 460.5 5836.5 2245.5" stroke="#D9D9D9" stroke-width="6.875" stroke-linejoin="round" stroke-miterlimit="10" stroke-dasharray="55 20.625" stroke-opacity="0.25098" fill="none"/></g><g clip-path="url(#clip2)"><path d="M3526.5 2245.5 5836.5 2245.5M3526.5 2155.57 5836.5 2155.57M3526.5 2066.57 5836.5 2066.57M3526.5 1977.57 5836.5 1977.57M3526.5 1888.56 5836.5 1888.56M3526.5 1798.56 5836.5 1798.56M3526.5 1709.56 5836.5 1709.56M3526.5 1620.55 5836.5 1620.55M3526.5 1531.55 5836.5 1531.55M3526.5 1442.55 5836.5 1442.55M3526.5 1352.54 5836.5 1352.54M3526.5 1263.54 5836.5 1263.54M3526.5 1174.54 5836.5 1174.54M3526.5 1085.54 5836.5 1085.54M3526.5 995.533 5836.5 995.533M3526.5 906.53 5836.5 906.53M3526.5 817.527 5836.5 817.527M3526.5 728.524 5836.5 728.524M3526.5 639.521 5836.5 639.521M3526.5 549.518 5836.5 549.518M3526.5 460.5 5836.5 460.5" stroke="#D9D9D9" stroke-width="6.875" stroke-linejoin="round" stroke-miterlimit="10" stroke-dasharray="55 20.625" stroke-opacity="0.25098" fill="none"/></g><g clip-path="url(#clip3)"><path d="M3998.63 2254.5 4681.65 2254.5 4681.65 2236.57 3998.63 2236.57ZM4001.63 2236.57 4681.65 2236.57 4681.65 2218.57 4001.63 2218.57ZM4015.63 2218.57 4681.65 2218.57 4681.65 2200.57 4015.63 2200.57ZM4032.63 2200.57 4681.65 2200.57 4681.65 2182.57 4032.63 2182.57ZM4037.63 2182.57 4681.65 2182.57 4681.65 2164.57 4037.63 2164.57ZM4033.63 2164.57 4681.65 2164.57 4681.65 2146.57 4033.63 2146.57ZM4023.63 2146.57 4681.65 2146.57 4681.65 2129.57 4023.63 2129.57ZM4018.63 2129.57 4681.65 2129.57 4681.65 2111.57 4018.63 2111.57ZM4010.63 2111.57 4681.65 2111.57 4681.65 2093.57 4010.63 2093.57ZM4009.63 2093.57 4681.65 2093.57 4681.65 2075.57 4009.63 2075.57ZM4008.63 2075.57 4681.65 2075.57 4681.65 2057.57 4008.63 2057.57ZM3992.63 2057.57 4681.65 2057.57 4681.65 2039.57 3992.63 2039.57ZM3973.63 2039.57 4681.65 2039.57 4681.65 2022.57 3973.63 2022.57ZM3961.63 2022.57 4681.65 2022.57 4681.65 2004.57 3961.63 2004.57ZM3959.63 2004.57 4681.65 2004.57 4681.65 1986.57 3959.63 1986.57ZM3962.63 1986.57 4681.65 1986.57 4681.65 1968.56 3962.63 1968.56ZM3960.63 1968.56 4681.65 1968.56 4681.65 1950.56 3960.63 1950.56ZM3949.63 1950.56 4681.65 1950.56 4681.65 1932.56 3949.63 1932.56ZM3930.63 1932.56 4681.65 1932.56 4681.65 1914.56 3930.63 1914.56ZM3902.63 1914.56 4681.65 1914.56 4681.65 1897.56 3902.63 1897.56ZM3876.63 1897.56 4681.65 1897.56 4681.65 1879.56 3876.63 1879.56ZM3852.63 1879.56 4681.65 1879.56 4681.65 1861.56 3852.63 1861.56ZM3822.63 1861.56 4681.65 1861.56 4681.65 1843.56 3822.63 1843.56ZM3810.63 1843.56 4681.65 1843.56 4681.65 1825.56 3810.63 1825.56ZM3815.63 1825.56 4681.65 1825.56 4681.65 1807.56 3815.63 1807.56ZM3824.63 1807.56 4681.65 1807.56 4681.65 1790.56 3824.63 1790.56ZM3835.63 1790.56 4681.65 1790.56 4681.65 1772.56 3835.63 1772.56ZM3834.63 1772.56 4681.65 1772.56 4681.65 1754.56 3834.63 1754.56ZM3821.63 1754.56 4681.65 1754.56 4681.65 1736.56 3821.63 1736.56ZM3810.63 1736.56 4681.65 1736.56 4681.65 1718.56 3810.63 1718.56ZM3804.62 1718.56 4681.65 1718.56 4681.65 1700.56 3804.62 1700.56ZM3794.62 1700.56 4681.65 1700.56 4681.65 1683.56 3794.62 1683.56ZM3791.62 1683.56 4681.65 1683.56 4681.65 1665.55 3791.62 1665.55ZM3805.62 1665.55 4681.65 1665.55 4681.65 1647.55 3805.62 1647.55ZM3822.63 1647.55 4681.65 1647.55 4681.65 1629.55 3822.63 1629.55ZM3827.63 1629.55 4681.65 1629.55 4681.65 1611.55 3827.63 1611.55ZM3829.63 1611.55 4681.65 1611.55 4681.65 1593.55 3829.63 1593.55ZM3841.63 1593.55 4681.65 1593.55 4681.65 1575.55 3841.63 1575.55ZM3861.63 1575.55 4681.65 1575.55 4681.65 1558.55 3861.63 1558.55ZM3879.63 1558.55 4681.65 1558.55 4681.65 1540.55 3879.63 1540.55ZM3886.63 1540.55 4681.65 1540.55 4681.65 1522.55 3886.63 1522.55ZM3875.63 1522.55 4681.65 1522.55 4681.65 1504.55 3875.63 1504.55ZM3864.63 1504.55 4681.65 1504.55 4681.65 1486.55 3864.63 1486.55ZM3875.63 1486.55 4681.65 1486.55 4681.65 1468.55 3875.63 1468.55ZM3890.63 1468.55 4681.65 1468.55 4681.65 1451.55 3890.63 1451.55ZM3898.63 1451.55 4681.65 1451.55 4681.65 1433.55 3898.63 1433.55ZM3902.63 1433.55 4681.65 1433.55 4681.65 1415.55 3902.63 1415.55ZM3899.63 1415.55 4681.65 1415.55 4681.65 1397.55 3899.63 1397.55ZM3883.63 1397.55 4681.65 1397.55 4681.65 1379.55 3883.63 1379.55ZM3853.63 1379.55 4681.65 1379.55 4681.65 1361.54 3853.63 1361.54ZM3804.62 1361.54 4681.65 1361.54 4681.65 1343.54 3804.62 1343.54ZM3748.62 1343.54 4681.65 1343.54 4681.65 1326.54 3748.62 1326.54ZM3704.62 1326.54 4681.65 1326.54 4681.65 1308.54 3704.62 1308.54ZM3674.62 1308.54 4681.65 1308.54 4681.65 1290.54 3674.62 1290.54ZM3687.62 1290.54 4681.65 1290.54 4681.65 1272.54 3687.62 1272.54ZM3716.62 1272.54 4681.65 1272.54 4681.65 1254.54 3716.62 1254.54ZM3722.62 1254.54 4681.65 1254.54 4681.65 1236.54 3722.62 1236.54ZM3718.62 1236.54 4681.65 1236.54 4681.65 1219.54 3718.62 1219.54ZM3705.62 1219.54 4681.65 1219.54 4681.65 1201.54 3705.62 1201.54ZM3706.62 1201.54 4681.65 1201.54 4681.65 1183.54 3706.62 1183.54ZM3725.62 1183.54 4681.65 1183.54 4681.65 1165.54 3725.62 1165.54ZM3744.62 1165.54 4681.65 1165.54 4681.65 1147.54 3744.62 1147.54ZM3768.62 1147.54 4681.65 1147.54 4681.65 1129.54 3768.62 1129.54ZM3791.62 1129.54 4681.65 1129.54 4681.65 1111.54 3791.62 1111.54ZM3813.63 1111.54 4681.65 1111.54 4681.65 1094.54 3813.63 1094.54ZM3842.63 1094.54 4681.65 1094.54 4681.65 1076.54 3842.63 1076.54ZM3866.63 1076.54 4681.65 1076.54 4681.65 1058.53 3866.63 1058.53ZM3891.63 1058.53 4681.65 1058.53 4681.65 1040.53 3891.63 1040.53ZM3915.63 1040.53 4681.65 1040.53 4681.65 1022.53 3915.63 1022.53ZM3935.63 1022.53 4681.65 1022.53 4681.65 1004.53 3935.63 1004.53ZM3949.63 1004.53 4681.65 1004.53 4681.65 987.533 3949.63 987.533ZM3970.63 987.533 4681.65 987.533 4681.65 969.532 3970.63 969.532ZM3993.63 969.532 4681.65 969.532 4681.65 951.531 3993.63 951.531ZM4002.63 951.531 4681.65 951.531 4681.65 933.531 4002.63 933.531ZM4002.63 933.531 4681.65 933.531 4681.65 915.53 4002.63 915.53ZM3994.63 915.53 4681.65 915.53 4681.65 897.53 3994.63 897.53ZM3986.63 897.53 4681.65 897.53 4681.65 879.529 3986.63 879.529ZM4096.63 879.529 4681.65 879.529 4681.65 862.528 4096.63 862.528ZM4205.64 862.528 4681.65 862.528 4681.65 844.528 4205.64 844.528ZM4227.64 844.528 4681.65 844.528 4681.65 826.527 4227.64 826.527ZM4277.64 826.527 4681.65 826.527 4681.65 808.527 4277.64 808.527ZM4325.64 808.527 4681.65 808.527 4681.65 790.526 4325.64 790.526ZM4354.64 790.526 4681.65 790.526 4681.65 772.526 4354.64 772.526ZM4382.64 772.526 4681.65 772.526 4681.65 755.525 4382.64 755.525ZM4418.65 755.525 4681.65 755.525 4681.65 737.524 4418.65 737.524ZM4455.65 737.524 4681.65 737.524 4681.65 719.524 4455.65 719.524ZM4491.65 719.524 4681.65 719.524 4681.65 701.523 4491.65 701.523ZM4521.65 701.523 4681.65 701.523 4681.65 683.523 4521.65 683.523ZM4549.65 683.523 4681.65 683.523 4681.65 665.522 4549.65 665.522ZM4574.65 665.522 4681.65 665.522 4681.65 647.521 4574.65 647.521ZM4595.65 647.521 4681.65 647.521 4681.65 630.521 4595.65 630.521ZM4614.65 630.521 4681.65 630.521 4681.65 612.52 4614.65 612.52ZM4630.65 612.52 4681.65 612.52 4681.65 594.52 4630.65 594.52ZM4643.65 594.52 4681.65 594.52 4681.65 576.519 4643.65 576.519ZM4654.65 576.519 4681.65 576.519 4681.65 558.518 4654.65 558.518ZM4663.65 558.518 4681.65 558.518 4681.65 540.518 4663.65 540.518ZM4669.65 540.518 4681.65 540.518 4681.65 523.517 4669.65 523.517ZM4673.65 523.517 4681.65 523.517 4681.65 505.517 4673.65 505.517ZM4676.65 505.517 4681.65 505.517 4681.65 487.516 4676.65 487.516ZM4678.65 487.516 4681.65 487.516 4681.65 469.516 4678.65 469.516ZM4677.65 469.516 4681.65 469.516 4681.65 451.5 4677.65 451.5Z" stroke="#000000" stroke-width="3.4375" stroke-linejoin="round" stroke-miterlimit="10" stroke-opacity="0.0509804" fill="#0070C0"/></g><g clip-path="url(#clip4)"><path d="M5364.68 2254.5 4681.65 2254.5 4681.65 2236.57 5364.68 2236.57ZM5361.68 2236.57 4681.65 2236.57 4681.65 2218.57 5361.68 2218.57ZM5347.68 2218.57 4681.65 2218.57 4681.65 2200.57 5347.68 2200.57ZM5330.67 2200.57 4681.65 2200.57 4681.65 2182.57 5330.67 2182.57ZM5325.67 2182.57 4681.65 2182.57 4681.65 2164.57 5325.67 2164.57ZM5329.67 2164.57 4681.65 2164.57 4681.65 2146.57 5329.67 2146.57ZM5339.68 2146.57 4681.65 2146.57 4681.65 2129.57 5339.68 2129.57ZM5344.68 2129.57 4681.65 2129.57 4681.65 2111.57 5344.68 2111.57ZM5352.68 2111.57 4681.65 2111.57 4681.65 2093.57 5352.68 2093.57ZM5353.68 2093.57 4681.65 2093.57 4681.65 2075.57 5353.68 2075.57ZM5354.68 2075.57 4681.65 2075.57 4681.65 2057.57 5354.68 2057.57ZM5370.68 2057.57 4681.65 2057.57 4681.65 2039.57 5370.68 2039.57ZM5388.68 2039.57 4681.65 2039.57 4681.65 2022.57 5388.68 2022.57ZM5401.68 2022.57 4681.65 2022.57 4681.65 2004.57 5401.68 2004.57ZM5403.68 2004.57 4681.65 2004.57 4681.65 1986.57 5403.68 1986.57ZM5400.68 1986.57 4681.65 1986.57 4681.65 1968.56 5400.68 1968.56ZM5402.68 1968.56 4681.65 1968.56 4681.65 1950.56 5402.68 1950.56ZM5413.68 1950.56 4681.65 1950.56 4681.65 1932.56 5413.68 1932.56ZM5432.68 1932.56 4681.65 1932.56 4681.65 1914.56 5432.68 1914.56ZM5459.68 1914.56 4681.65 1914.56 4681.65 1897.56 5459.68 1897.56ZM5486.68 1897.56 4681.65 1897.56 4681.65 1879.56 5486.68 1879.56ZM5510.68 1879.56 4681.65 1879.56 4681.65 1861.56 5510.68 1861.56ZM5540.68 1861.56 4681.65 1861.56 4681.65 1843.56 5540.68 1843.56ZM5552.68 1843.56 4681.65 1843.56 4681.65 1825.56 5552.68 1825.56ZM5547.68 1825.56 4681.65 1825.56 4681.65 1807.56 5547.68 1807.56ZM5538.68 1807.56 4681.65 1807.56 4681.65 1790.56 5538.68 1790.56ZM5527.68 1790.56 4681.65 1790.56 4681.65 1772.56 5527.68 1772.56ZM5528.68 1772.56 4681.65 1772.56 4681.65 1754.56 5528.68 1754.56ZM5541.68 1754.56 4681.65 1754.56 4681.65 1736.56 5541.68 1736.56ZM5552.68 1736.56 4681.65 1736.56 4681.65 1718.56 5552.68 1718.56ZM5558.68 1718.56 4681.65 1718.56 4681.65 1700.56 5558.68 1700.56ZM5568.68 1700.56 4681.65 1700.56 4681.65 1683.56 5568.68 1683.56ZM5571.68 1683.56 4681.65 1683.56 4681.65 1665.55 5571.68 1665.55ZM5557.68 1665.55 4681.65 1665.55 4681.65 1647.55 5557.68 1647.55ZM5540.68 1647.55 4681.65 1647.55 4681.65 1629.55 5540.68 1629.55ZM5535.68 1629.55 4681.65 1629.55 4681.65 1611.55 5535.68 1611.55ZM5533.68 1611.55 4681.65 1611.55 4681.65 1593.55 5533.68 1593.55ZM5521.68 1593.55 4681.65 1593.55 4681.65 1575.55 5521.68 1575.55ZM5501.68 1575.55 4681.65 1575.55 4681.65 1558.55 5501.68 1558.55ZM5483.68 1558.55 4681.65 1558.55 4681.65 1540.55 5483.68 1540.55ZM5476.68 1540.55 4681.65 1540.55 4681.65 1522.55 5476.68 1522.55ZM5487.68 1522.55 4681.65 1522.55 4681.65 1504.55 5487.68 1504.55ZM5498.68 1504.55 4681.65 1504.55 4681.65 1486.55 5498.68 1486.55ZM5487.68 1486.55 4681.65 1486.55 4681.65 1468.55 5487.68 1468.55ZM5472.68 1468.55 4681.65 1468.55 4681.65 1451.55 5472.68 1451.55ZM5464.68 1451.55 4681.65 1451.55 4681.65 1433.55 5464.68 1433.55ZM5460.68 1433.55 4681.65 1433.55 4681.65 1415.55 5460.68 1415.55ZM5463.68 1415.55 4681.65 1415.55 4681.65 1397.55 5463.68 1397.55ZM5479.68 1397.55 4681.65 1397.55 4681.65 1379.55 5479.68 1379.55ZM5509.68 1379.55 4681.65 1379.55 4681.65 1361.54 5509.68 1361.54ZM5558.68 1361.54 4681.65 1361.54 4681.65 1343.54 5558.68 1343.54ZM5614.68 1343.54 4681.65 1343.54 4681.65 1326.54 5614.68 1326.54ZM5658.69 1326.54 4681.65 1326.54 4681.65 1308.54 5658.69 1308.54ZM5688.69 1308.54 4681.65 1308.54 4681.65 1290.54 5688.69 1290.54ZM5675.69 1290.54 4681.65 1290.54 4681.65 1272.54 5675.69 1272.54ZM5646.69 1272.54 4681.65 1272.54 4681.65 1254.54 5646.69 1254.54ZM5640.69 1254.54 4681.65 1254.54 4681.65 1236.54 5640.69 1236.54ZM5644.69 1236.54 4681.65 1236.54 4681.65 1219.54 5644.69 1219.54ZM5657.69 1219.54 4681.65 1219.54 4681.65 1201.54 5657.69 1201.54ZM5656.69 1201.54 4681.65 1201.54 4681.65 1183.54 5656.69 1183.54ZM5637.69 1183.54 4681.65 1183.54 4681.65 1165.54 5637.69 1165.54ZM5618.68 1165.54 4681.65 1165.54 4681.65 1147.54 5618.68 1147.54ZM5594.68 1147.54 4681.65 1147.54 4681.65 1129.54 5594.68 1129.54ZM5571.68 1129.54 4681.65 1129.54 4681.65 1111.54 5571.68 1111.54ZM5548.68 1111.54 4681.65 1111.54 4681.65 1094.54 5548.68 1094.54ZM5520.68 1094.54 4681.65 1094.54 4681.65 1076.54 5520.68 1076.54ZM5496.68 1076.54 4681.65 1076.54 4681.65 1058.53 5496.68 1058.53ZM5471.68 1058.53 4681.65 1058.53 4681.65 1040.53 5471.68 1040.53ZM5447.68 1040.53 4681.65 1040.53 4681.65 1022.53 5447.68 1022.53ZM5427.68 1022.53 4681.65 1022.53 4681.65 1004.53 5427.68 1004.53ZM5413.68 1004.53 4681.65 1004.53 4681.65 987.533 5413.68 987.533ZM5392.68 987.533 4681.65 987.533 4681.65 969.532 5392.68 969.532ZM5369.68 969.532 4681.65 969.532 4681.65 951.531 5369.68 951.531ZM5360.68 951.531 4681.65 951.531 4681.65 933.531 5360.68 933.531ZM5360.68 933.531 4681.65 933.531 4681.65 915.53 5360.68 915.53ZM5368.68 915.53 4681.65 915.53 4681.65 897.53 5368.68 897.53ZM5376.68 897.53 4681.65 897.53 4681.65 879.529 5376.68 879.529ZM5266.67 879.529 4681.65 879.529 4681.65 862.528 5266.67 862.528ZM5157.67 862.528 4681.65 862.528 4681.65 844.528 5157.67 844.528ZM5135.67 844.528 4681.65 844.528 4681.65 826.527 5135.67 826.527ZM5085.67 826.527 4681.65 826.527 4681.65 808.527 5085.67 808.527ZM5037.67 808.527 4681.65 808.527 4681.65 790.526 5037.67 790.526ZM5008.66 790.526 4681.65 790.526 4681.65 772.526 5008.66 772.526ZM4979.66 772.526 4681.65 772.526 4681.65 755.525 4979.66 755.525ZM4944.66 755.525 4681.65 755.525 4681.65 737.524 4944.66 737.524ZM4907.66 737.524 4681.65 737.524 4681.65 719.524 4907.66 719.524ZM4871.66 719.524 4681.65 719.524 4681.65 701.523 4871.66 701.523ZM4841.66 701.523 4681.65 701.523 4681.65 683.523 4841.66 683.523ZM4813.66 683.523 4681.65 683.523 4681.65 665.522 4813.66 665.522ZM4788.66 665.522 4681.65 665.522 4681.65 647.521 4788.66 647.521ZM4766.66 647.521 4681.65 647.521 4681.65 630.521 4766.66 630.521ZM4748.66 630.521 4681.65 630.521 4681.65 612.52 4748.66 612.52ZM4732.66 612.52 4681.65 612.52 4681.65 594.52 4732.66 594.52ZM4719.66 594.52 4681.65 594.52 4681.65 576.519 4719.66 576.519ZM4708.65 576.519 4681.65 576.519 4681.65 558.518 4708.65 558.518ZM4699.65 558.518 4681.65 558.518 4681.65 540.518 4699.65 540.518ZM4693.65 540.518 4681.65 540.518 4681.65 523.517 4693.65 523.517ZM4689.65 523.517 4681.65 523.517 4681.65 505.517 4689.65 505.517ZM4686.65 505.517 4681.65 505.517 4681.65 487.516 4686.65 487.516ZM4684.65 487.516 4681.65 487.516 4681.65 469.516 4684.65 469.516ZM4685.65 469.516 4681.65 469.516 4681.65 451.5 4685.65 451.5Z" stroke="#000000" stroke-width="3.4375" stroke-linejoin="round" stroke-miterlimit="10" stroke-opacity="0.0509804" fill="#FF5050"/></g><g clip-path="url(#clip5)"><path d="M3963.63 2254.5 3998.63 2254.5 3998.63 2236.57 3963.63 2236.57ZM3966.63 2236.57 4001.63 2236.57 4001.63 2218.57 3966.63 2218.57ZM3982.63 2218.57 4015.63 2218.57 4015.63 2200.57 3982.63 2200.57ZM4001.63 2200.57 4032.63 2200.57 4032.63 2182.57 4001.63 2182.57ZM4006.63 2182.57 4037.63 2182.57 4037.63 2164.57 4006.63 2164.57ZM4001.63 2164.57 4033.63 2164.57 4033.63 2146.57 4001.63 2146.57ZM3988.63 2146.57 4023.63 2146.57 4023.63 2129.57 3988.63 2129.57ZM3983.63 2129.57 4018.63 2129.57 4018.63 2111.57 3983.63 2111.57ZM3976.63 2111.57 4010.63 2111.57 4010.63 2093.57 3976.63 2093.57ZM3975.63 2093.57 4009.63 2093.57 4009.63 2075.57 3975.63 2075.57ZM3971.63 2075.57 4008.63 2075.57 4008.63 2057.57 3971.63 2057.57ZM3954.63 2057.57 3992.63 2057.57 3992.63 2039.57 3954.63 2039.57ZM3938.63 2039.57 3973.63 2039.57 3973.63 2022.57 3938.63 2022.57ZM3926.63 2022.57 3961.63 2022.57 3961.63 2004.57 3926.63 2004.57ZM3921.63 2004.57 3959.63 2004.57 3959.63 1986.57 3921.63 1986.57ZM3926.63 1986.57 3962.63 1986.57 3962.63 1968.56 3926.63 1968.56ZM3925.63 1968.56 3960.63 1968.56 3960.63 1950.56 3925.63 1950.56ZM3913.63 1950.56 3949.63 1950.56 3949.63 1932.56 3913.63 1932.56ZM3895.63 1932.56 3930.63 1932.56 3930.63 1914.56 3895.63 1914.56ZM3866.63 1914.56 3902.63 1914.56 3902.63 1897.56 3866.63 1897.56ZM3840.63 1897.56 3876.63 1897.56 3876.63 1879.56 3840.63 1879.56ZM3820.63 1879.56 3852.63 1879.56 3852.63 1861.56 3820.63 1861.56ZM3794.62 1861.56 3822.63 1861.56 3822.63 1843.56 3794.62 1843.56ZM3783.62 1843.56 3810.63 1843.56 3810.63 1825.56 3783.62 1825.56ZM3790.62 1825.56 3815.63 1825.56 3815.63 1807.56 3790.62 1807.56ZM3801.62 1807.56 3824.63 1807.56 3824.63 1790.56 3801.62 1790.56ZM3810.63 1790.56 3835.63 1790.56 3835.63 1772.56 3810.63 1772.56ZM3808.62 1772.56 3834.63 1772.56 3834.63 1754.56 3808.62 1754.56ZM3795.62 1754.56 3821.63 1754.56 3821.63 1736.56 3795.62 1736.56ZM3782.62 1736.56 3810.63 1736.56 3810.63 1718.56 3782.62 1718.56ZM3774.62 1718.56 3804.62 1718.56 3804.62 1700.56 3774.62 1700.56ZM3764.62 1700.56 3794.62 1700.56 3794.62 1683.56 3764.62 1683.56ZM3762.62 1683.56 3791.62 1683.56 3791.62 1665.55 3762.62 1665.55ZM3781.62 1665.55 3805.62 1665.55 3805.62 1647.55 3781.62 1647.55ZM3801.62 1647.55 3822.63 1647.55 3822.63 1629.55 3801.62 1629.55ZM3806.62 1629.55 3827.63 1629.55 3827.63 1611.55 3806.62 1611.55ZM3812.63 1611.55 3829.63 1611.55 3829.63 1593.55 3812.63 1593.55ZM3829.63 1593.55 3841.63 1593.55 3841.63 1575.55 3829.63 1575.55ZM3849.63 1575.55 3861.63 1575.55 3861.63 1558.55 3849.63 1558.55ZM3869.63 1558.55 3879.63 1558.55 3879.63 1540.55 3869.63 1540.55ZM3879.63 1540.55 3886.63 1540.55 3886.63 1522.55 3879.63 1522.55ZM3872.63 1522.55 3875.63 1522.55 3875.63 1504.55 3872.63 1504.55ZM3863.63 1504.55 3864.63 1504.55 3864.63 1486.55 3863.63 1486.55ZM3685.62 1290.54 3687.62 1290.54 3687.62 1272.54 3685.62 1272.54ZM3711.62 1272.54 3716.62 1272.54 3716.62 1254.54 3711.62 1254.54ZM3715.62 1254.54 3722.62 1254.54 3722.62 1236.54 3715.62 1236.54ZM3709.62 1236.54 3718.62 1236.54 3718.62 1219.54 3709.62 1219.54ZM3696.62 1219.54 3705.62 1219.54 3705.62 1201.54 3696.62 1201.54ZM3701.62 1201.54 3706.62 1201.54 3706.62 1183.54 3701.62 1183.54ZM3724.62 1183.54 3725.62 1183.54 3725.62 1165.54 3724.62 1165.54Z" stroke="#000000" stroke-width="3.4375" stroke-linejoin="round" stroke-miterlimit="10" stroke-opacity="0.0509804" fill="#203864"/></g><g clip-path="url(#clip6)"><path d="M5489.68 1486.55 5487.68 1486.55 5487.68 1468.55 5489.68 1468.55ZM5476.68 1468.55 5472.68 1468.55 5472.68 1451.55 5476.68 1451.55ZM5472.68 1451.55 5464.68 1451.55 5464.68 1433.55 5472.68 1433.55ZM5468.68 1433.55 5460.68 1433.55 5460.68 1415.55 5468.68 1415.55ZM5472.68 1415.55 5463.68 1415.55 5463.68 1397.55 5472.68 1397.55ZM5490.68 1397.55 5479.68 1397.55 5479.68 1379.55 5490.68 1379.55ZM5522.68 1379.55 5509.68 1379.55 5509.68 1361.54 5522.68 1361.54ZM5572.68 1361.54 5558.68 1361.54 5558.68 1343.54 5572.68 1343.54ZM5625.68 1343.54 5614.68 1343.54 5614.68 1326.54 5625.68 1326.54ZM5664.69 1326.54 5658.69 1326.54 5658.69 1308.54 5664.69 1308.54ZM5689.69 1308.54 5688.69 1308.54 5688.69 1290.54 5689.69 1290.54ZM5622.68 1165.54 5618.68 1165.54 5618.68 1147.54 5622.68 1147.54ZM5600.68 1147.54 5594.68 1147.54 5594.68 1129.54 5600.68 1129.54ZM5579.68 1129.54 5571.68 1129.54 5571.68 1111.54 5579.68 1111.54ZM5558.68 1111.54 5548.68 1111.54 5548.68 1094.54 5558.68 1094.54ZM5533.68 1094.54 5520.68 1094.54 5520.68 1076.54 5533.68 1076.54ZM5513.68 1076.54 5496.68 1076.54 5496.68 1058.53 5513.68 1058.53ZM5492.68 1058.53 5471.68 1058.53 5471.68 1040.53 5492.68 1040.53ZM5471.68 1040.53 5447.68 1040.53 5447.68 1022.53 5471.68 1022.53ZM5451.68 1022.53 5427.68 1022.53 5427.68 1004.53 5451.68 1004.53ZM5439.68 1004.53 5413.68 1004.53 5413.68 987.533 5439.68 987.533ZM5419.68 987.533 5392.68 987.533 5392.68 969.532 5419.68 969.532ZM5400.68 969.532 5369.68 969.532 5369.68 951.531 5400.68 951.531ZM5397.68 951.531 5360.68 951.531 5360.68 933.531 5397.68 933.531ZM5401.68 933.531 5360.68 933.531 5360.68 915.53 5401.68 915.53ZM5420.68 915.53 5368.68 915.53 5368.68 897.53 5420.68 897.53ZM5439.68 897.53 5376.68 897.53 5376.68 879.529 5439.68 879.529ZM5328.67 879.529 5266.67 879.529 5266.67 862.528 5328.67 862.528ZM5220.67 862.528 5157.67 862.528 5157.67 844.528 5220.67 844.528ZM5204.67 844.528 5135.67 844.528 5135.67 826.527 5204.67 826.527ZM5156.67 826.527 5085.67 826.527 5085.67 808.527 5156.67 808.527ZM5111.67 808.527 5037.67 808.527 5037.67 790.526 5111.67 790.526ZM5090.67 790.526 5008.66 790.526 5008.66 772.526 5090.67 772.526ZM5070.67 772.526 4979.66 772.526 4979.66 755.525 5070.67 755.525ZM5038.67 755.525 4944.66 755.525 4944.66 737.524 5038.67 737.524ZM5001.66 737.524 4907.66 737.524 4907.66 719.524 5001.66 719.524ZM4965.66 719.524 4871.66 719.524 4871.66 701.523 4965.66 701.523ZM4935.66 701.523 4841.66 701.523 4841.66 683.523 4935.66 683.523ZM4905.66 683.523 4813.66 683.523 4813.66 665.522 4905.66 665.522ZM4875.66 665.522 4788.66 665.522 4788.66 647.521 4875.66 647.521ZM4848.66 647.521 4766.66 647.521 4766.66 630.521 4848.66 630.521ZM4822.66 630.521 4748.66 630.521 4748.66 612.52 4822.66 612.52ZM4796.66 612.52 4732.66 612.52 4732.66 594.52 4796.66 594.52ZM4772.66 594.52 4719.66 594.52 4719.66 576.519 4772.66 576.519ZM4750.66 576.519 4708.65 576.519 4708.65 558.518 4750.66 558.518ZM4733.66 558.518 4699.65 558.518 4699.65 540.518 4733.66 540.518ZM4719.66 540.518 4693.65 540.518 4693.65 523.517 4719.66 523.517ZM4708.65 523.517 4689.65 523.517 4689.65 505.517 4708.65 505.517ZM4699.65 505.517 4686.65 505.517 4686.65 487.516 4699.65 487.516ZM4693.65 487.516 4684.65 487.516 4684.65 469.516 4693.65 469.516ZM4698.65 469.516 4685.65 469.516 4685.65 451.5 4698.65 451.5Z" stroke="#000000" stroke-width="3.4375" stroke-linejoin="round" stroke-miterlimit="10" stroke-opacity="0.0509804" fill="#C00000"/></g><g clip-path="url(#clip7)"><path d="M0 0 0.000360892 1785" stroke="#000000" stroke-width="3.4375" stroke-linejoin="round" stroke-miterlimit="10" stroke-opacity="0.34902" fill="none" fill-rule="evenodd" transform="matrix(1 0 0 -1 4681.5 2245.5)"/></g><g clip-path="url(#clip8)"><text font-family="Arial,Arial_MSFontService,sans-serif" font-weight="400" font-size="48" transform="matrix(1 0 0 1 3439.72 2318)">150,000</text></g><g clip-path="url(#clip9)"><text font-family="Arial,Arial_MSFontService,sans-serif" font-weight="400" font-size="48" transform="matrix(1 0 0 1 3824.69 2318)">100,000</text></g><g clip-path="url(#clip10)"><text font-family="Arial,Arial_MSFontService,sans-serif" font-weight="400" font-size="48" transform="matrix(1 0 0 1 4223.04 2318)">50,000</text></g><g clip-path="url(#clip11)"><text font-family="Arial,Arial_MSFontService,sans-serif" font-weight="400" font-size="48" transform="matrix(1 0 0 1 4668.23 2318)">0</text></g><g clip-path="url(#clip12)"><text font-family="Arial,Arial_MSFontService,sans-serif" font-weight="400" font-size="48" transform="matrix(1 0 0 1 4992.98 2318)">50,000</text></g><g clip-path="url(#clip13)"><text font-family="Arial,Arial_MSFontService,sans-serif" font-weight="400" font-size="48" transform="matrix(1 0 0 1 5364.57 2318)">100,000</text></g><g clip-path="url(#clip14)"><text font-family="Arial,Arial_MSFontService,sans-serif" font-weight="400" font-size="48" transform="matrix(1 0 0 1 5749.54 2318)">150,000</text></g><g clip-path="url(#clip15)"><text font-family="Arial,Arial_MSFontService,sans-serif" font-weight="400" font-size="55" transform="matrix(1 0 0 1 3448.78 2263)">0</text></g><g clip-path="url(#clip16)"><text font-family="Arial,Arial_MSFontService,sans-serif" font-weight="400" font-size="55" transform="matrix(1 0 0 1 3448.78 2174)">5</text></g><g clip-path="url(#clip17)"><text font-family="Arial,Arial_MSFontService,sans-serif" font-weight="400" font-size="55" transform="matrix(1 0 0 1 3418.18 2084)">10</text></g><g clip-path="url(#clip18)"><text font-family="Arial,Arial_MSFontService,sans-serif" font-weight="400" font-size="55" transform="matrix(1 0 0 1 3418.18 1995)">15</text></g><g clip-path="url(#clip19)"><text font-family="Arial,Arial_MSFontService,sans-serif" font-weight="400" font-size="55" transform="matrix(1 0 0 1 3418.18 1906)">20</text></g><g clip-path="url(#clip20)"><text font-family="Arial,Arial_MSFontService,sans-serif" font-weight="400" font-size="55" transform="matrix(1 0 0 1 3418.18 1817)">25</text></g><g clip-path="url(#clip21)"><text font-family="Arial,Arial_MSFontService,sans-serif" font-weight="400" font-size="55" transform="matrix(1 0 0 1 3418.18 1727)">30</text></g><g clip-path="url(#clip22)"><text font-family="Arial,Arial_MSFontService,sans-serif" font-weight="400" font-size="55" transform="matrix(1 0 0 1 3418.18 1638)">35</text></g><g clip-path="url(#clip23)"><text font-family="Arial,Arial_MSFontService,sans-serif" font-weight="400" font-size="55" transform="matrix(1 0 0 1 3418.18 1549)">40</text></g><g clip-path="url(#clip24)"><text font-family="Arial,Arial_MSFontService,sans-serif" font-weight="400" font-size="55" transform="matrix(1 0 0 1 3418.18 1460)">45</text></g><g clip-path="url(#clip25)"><text font-family="Arial,Arial_MSFontService,sans-serif" font-weight="400" font-size="55" transform="matrix(1 0 0 1 3418.18 1371)">50</text></g><g clip-path="url(#clip26)"><text font-family="Arial,Arial_MSFontService,sans-serif" font-weight="400" font-size="55" transform="matrix(1 0 0 1 3418.18 1281)">55</text></g><g clip-path="url(#clip27)"><text font-family="Arial,Arial_MSFontService,sans-serif" font-weight="400" font-size="55" transform="matrix(1 0 0 1 3418.18 1192)">60</text></g><g clip-path="url(#clip28)"><text font-family="Arial,Arial_MSFontService,sans-serif" font-weight="400" font-size="55" transform="matrix(1 0 0 1 3418.18 1103)">65</text></g><g clip-path="url(#clip29)"><text font-family="Arial,Arial_MSFontService,sans-serif" font-weight="400" font-size="55" transform="matrix(1 0 0 1 3418.18 1014)">70</text></g><g clip-path="url(#clip30)"><text font-family="Arial,Arial_MSFontService,sans-serif" font-weight="400" font-size="55" transform="matrix(1 0 0 1 3418.18 924)">75</text></g><g clip-path="url(#clip31)"><text font-family="Arial,Arial_MSFontService,sans-serif" font-weight="400" font-size="55" transform="matrix(1 0 0 1 3418.18 835)">80</text></g><g clip-path="url(#clip32)"><text font-family="Arial,Arial_MSFontService,sans-serif" font-weight="400" font-size="55" transform="matrix(1 0 0 1 3418.18 746)">85</text></g><g clip-path="url(#clip33)"><text font-family="Arial,Arial_MSFontService,sans-serif" font-weight="400" font-size="55" transform="matrix(1 0 0 1 3418.18 657)">90</text></g><g clip-path="url(#clip34)"><text font-family="Arial,Arial_MSFontService,sans-serif" font-weight="400" font-size="55" transform="matrix(1 0 0 1 3418.18 567)">95</text></g><g clip-path="url(#clip35)"><text font-family="Arial,Arial_MSFontService,sans-serif" font-weight="400" font-size="55" transform="matrix(1 0 0 1 3355.46 478)">100+</text></g><g clip-path="url(#clip36)"><text font-family="Arial,Arial_MSFontService,sans-serif" font-weight="400" font-size="41" transform="matrix(1 0 0 1 4590.98 2365)">Population</text></g><g clip-path="url(#clip37)"><text font-family="Arial,Arial_MSFontService,sans-serif" font-weight="400" font-size="46" transform="matrix(6.12323e-17 -1 1 6.12323e-17 3380.12 1394)">Age</text></g><g clip-path="url(#clip38)"><rect x="4282" y="320" width="780" height="109" fill="#FFFFFF" fill-opacity="0.85098"/></g><g clip-path="url(#clip39)"><text font-family="Arial,Arial_MSFontService,sans-serif" font-weight="700" font-size="83" transform="matrix(1 0 0 1 4296.21 404)">Netherlands </text></g><g clip-path="url(#clip40)"><text font-family="Arial,Arial_MSFontService,sans-serif" font-weight="700" font-size="83" transform="matrix(1 0 0 1 4795.91 404)">–</text></g><g clip-path="url(#clip41)"><text font-family="Arial,Arial_MSFontService,sans-serif" font-weight="700" font-size="83" transform="matrix(1 0 0 1 4864.7 404)">2023 </text></g><g clip-path="url(#clip42)"><rect x="3546" y="482" width="420" height="260" fill="#FFFFFF" fill-opacity="0.85098"/></g><g clip-path="url(#clip43)"><rect x="3574.5" y="502.5" width="24.9998" height="25.0001" stroke="#000000" stroke-width="3.4375" stroke-linejoin="round" stroke-miterlimit="10" stroke-opacity="0.0509804" fill="#0070C0"/></g><g clip-path="url(#clip44)"><text font-family="Arial,Arial_MSFontService,sans-serif" font-weight="400" font-size="50" transform="matrix(1 0 0 1 3610.88 531)">Males</text></g><g clip-path="url(#clip45)"><rect x="3574.5" y="567.5" width="24.9998" height="25.0001" stroke="#000000" stroke-width="3.4375" stroke-linejoin="round" stroke-miterlimit="10" stroke-opacity="0.0509804" fill="#FF5050"/></g><g clip-path="url(#clip46)"><text font-family="Arial,Arial_MSFontService,sans-serif" font-weight="400" font-size="50" transform="matrix(1 0 0 1 3610.88 596)">Females</text></g><g clip-path="url(#clip47)"><rect x="3574.5" y="632.5" width="24.9998" height="25.0001" stroke="#000000" stroke-width="3.4375" stroke-linejoin="round" stroke-miterlimit="10" stroke-opacity="0.0509804" fill="#203864"/></g><g clip-path="url(#clip48)"><text font-family="Arial,Arial_MSFontService,sans-serif" font-weight="400" font-size="50" transform="matrix(1 0 0 1 3610.88 661)">Male surplus</text></g><g clip-path="url(#clip49)"><rect x="3574.5" y="697.5" width="24.9998" height="25.0001" stroke="#000000" stroke-width="3.4375" stroke-linejoin="round" stroke-miterlimit="10" stroke-opacity="0.0509804" fill="#C00000"/></g><g clip-path="url(#clip50)"><text font-family="Arial,Arial_MSFontService,sans-serif" font-weight="400" font-size="50" transform="matrix(1 0 0 1 3610.88 726)">Female surplus</text></g><rect x="3330.5" y="286.5" width="2621" height="2101" stroke="#D9D9D9" stroke-width="3.4375" stroke-linejoin="round" stroke-miterlimit="10" fill="none"/></g></svg>